<svg width="31" height="30" viewBox="0 0 31 30" fill="none" xmlns="http://www.w3.org/2000/svg">
<circle cx="15.5" cy="15" r="12.5" fill="#2A3342"/>
<path fill-rule="evenodd" clip-rule="evenodd" d="M12.2342 8.92743C12.2342 9.70561 11.6417 10.3354 10.7151 10.3354C9.8246 10.3354 9.23208 9.70561 9.25041 8.92743C9.23208 8.11143 9.82458 7.5 10.7328 7.5C11.6417 7.5 12.2165 8.11143 12.2342 8.92743ZM9.32491 20.5119V11.4476H12.142V20.5113H9.32491V20.5119Z" fill="white"/>
<path fill-rule="evenodd" clip-rule="evenodd" d="M14.3997 14.3404C14.3997 13.2098 14.3624 12.2459 14.3252 11.4488H16.7721L16.9021 12.6906H16.9577C17.3285 12.1159 18.2551 11.2454 19.7564 11.2454C21.6096 11.2454 22.9998 12.4689 22.9998 15.1369V20.5131H20.1828V15.4899C20.1828 14.3215 19.7753 13.525 18.7559 13.525C17.9772 13.525 17.5141 14.0625 17.3291 14.5811C17.2546 14.7667 17.2179 15.0257 17.2179 15.2859V20.5131H14.4008V14.3404H14.3997Z" fill="white"/>
</svg>
