<svg width="26" height="26" viewBox="0 0 26 26" fill="none" xmlns="http://www.w3.org/2000/svg">
<path d="M12.075 23.2375C6.1425 23.2375 1.3125 18.4075 1.3125 12.475C1.3125 6.54253 6.1425 1.71252 12.075 1.71252C18.0075 1.71252 22.8375 6.54253 22.8375 12.475C22.8375 18.4075 18.0075 23.2375 12.075 23.2375ZM12.075 3.28752C7.0035 3.28752 2.8875 7.41403 2.8875 12.475C2.8875 17.536 7.0035 21.6625 12.075 21.6625C17.1465 21.6625 21.2625 17.536 21.2625 12.475C21.2625 7.41403 17.1465 3.28752 12.075 3.28752Z" fill="#D9D9D9"/>
<path d="M23.1 24.2875C22.9005 24.2875 22.701 24.214 22.5435 24.0565L20.4435 21.9565C20.139 21.652 20.139 21.148 20.4435 20.8435C20.748 20.539 21.252 20.539 21.5565 20.8435L23.6565 22.9435C23.961 23.248 23.961 23.752 23.6565 24.0565C23.499 24.214 23.2995 24.2875 23.1 24.2875Z" fill="#D9D9D9"/>
</svg>
