<svg width="28" height="28" viewBox="0 0 28 28" fill="none" xmlns="http://www.w3.org/2000/svg">
<path d="M25.6667 8.45837H18.6667C18.1884 8.45837 17.7917 8.06171 17.7917 7.58337C17.7917 7.10504 18.1884 6.70837 18.6667 6.70837H25.6667C26.1451 6.70837 26.5417 7.10504 26.5417 7.58337C26.5417 8.06171 26.1451 8.45837 25.6667 8.45837Z" fill="white"/>
<path d="M6.99992 8.45837H2.33325C1.85492 8.45837 1.45825 8.06171 1.45825 7.58337C1.45825 7.10504 1.85492 6.70837 2.33325 6.70837H6.99992C7.47825 6.70837 7.87492 7.10504 7.87492 7.58337C7.87492 8.06171 7.47825 8.45837 6.99992 8.45837Z" fill="white"/>
<path d="M11.6666 12.5417C8.93659 12.5417 6.70825 10.3133 6.70825 7.58333C6.70825 4.85333 8.93659 2.625 11.6666 2.625C14.3966 2.625 16.6249 4.85333 16.6249 7.58333C16.6249 10.3133 14.3966 12.5417 11.6666 12.5417ZM11.6666 4.375C9.89325 4.375 8.45825 5.81 8.45825 7.58333C8.45825 9.35667 9.89325 10.7917 11.6666 10.7917C13.4399 10.7917 14.8749 9.35667 14.8749 7.58333C14.8749 5.81 13.4399 4.375 11.6666 4.375Z" fill="white"/>
<path d="M25.6667 21.2916H21C20.5217 21.2916 20.125 20.895 20.125 20.4166C20.125 19.9383 20.5217 19.5416 21 19.5416H25.6667C26.145 19.5416 26.5417 19.9383 26.5417 20.4166C26.5417 20.895 26.145 21.2916 25.6667 21.2916Z" fill="white"/>
<path d="M9.33325 21.2916H2.33325C1.85492 21.2916 1.45825 20.895 1.45825 20.4166C1.45825 19.9383 1.85492 19.5416 2.33325 19.5416H9.33325C9.81159 19.5416 10.2083 19.9383 10.2083 20.4166C10.2083 20.895 9.81159 21.2916 9.33325 21.2916Z" fill="white"/>
<path d="M16.3333 25.375C13.6033 25.375 11.375 23.1467 11.375 20.4167C11.375 17.6867 13.6033 15.4584 16.3333 15.4584C19.0633 15.4584 21.2917 17.6867 21.2917 20.4167C21.2917 23.1467 19.0633 25.375 16.3333 25.375ZM16.3333 17.2084C14.56 17.2084 13.125 18.6434 13.125 20.4167C13.125 22.19 14.56 23.625 16.3333 23.625C18.1067 23.625 19.5417 22.19 19.5417 20.4167C19.5417 18.6434 18.1067 17.2084 16.3333 17.2084Z" fill="white"/>
</svg>
