<svg width="14" height="14" viewBox="0 0 14 14" fill="none" xmlns="http://www.w3.org/2000/svg">
<path d="M10.7898 8.54675C10.6172 8.71408 10.5378 8.95608 10.5772 9.19341L11.1698 12.4734C11.2198 12.7514 11.1025 13.0327 10.8698 13.1934C10.6418 13.3601 10.3385 13.3801 10.0898 13.2467L7.13716 11.7067C7.0345 11.6521 6.9205 11.6227 6.80383 11.6194H6.62316C6.5605 11.6287 6.49916 11.6487 6.44316 11.6794L3.48983 13.2267C3.34383 13.3001 3.1785 13.3261 3.0165 13.3001C2.62183 13.2254 2.3585 12.8494 2.42316 12.4527L3.0165 9.17275C3.05583 8.93341 2.9765 8.69008 2.80383 8.52008L0.396497 6.18675C0.195163 5.99141 0.125163 5.69808 0.217163 5.43341C0.306497 5.16941 0.534497 4.97675 0.80983 4.93341L4.12316 4.45275C4.37516 4.42675 4.5965 4.27341 4.70983 4.04675L6.16983 1.05341C6.2045 0.986748 6.24916 0.925415 6.30316 0.873415L6.36316 0.826748C6.3945 0.792081 6.4305 0.763415 6.4705 0.740081L6.54316 0.713415L6.6565 0.666748H6.93716C7.18783 0.692748 7.4085 0.842748 7.52383 1.06675L9.00316 4.04675C9.10983 4.26475 9.31716 4.41608 9.5565 4.45275L12.8698 4.93341C13.1498 4.97341 13.3838 5.16675 13.4765 5.43341C13.5638 5.70075 13.4885 5.99408 13.2832 6.18675L10.7898 8.54675Z" fill="#FDC040"/>
</svg>
